<svg xmlns="http://www.w3.org/2000/svg" viewBox="0 0 64 64" fill="none">
  <defs>
    <linearGradient id="bg" x1="10" y1="8" x2="54" y2="56" gradientUnits="userSpaceOnUse">
      <stop stop-color="#0B2440" />
      <stop offset="1" stop-color="#103455" />
    </linearGradient>
    <linearGradient id="accent" x1="20" y1="14" x2="50" y2="42" gradientUnits="userSpaceOnUse">
      <stop stop-color="#32D6F3" />
      <stop offset="1" stop-color="#16A57B" />
    </linearGradient>
  </defs>
  <rect width="64" height="64" rx="18" fill="#F7FBFF" />
  <rect x="6" y="6" width="52" height="52" rx="16" fill="url(#bg)" />
  <path
    d="M24 12c-5.523 0-10 4.477-10 10v20c0 5.523 4.477 10 10 10s10-4.477 10-10V30h8c8.837 0 16-7.163 16-16S50.837-2 42 6H24Z"
    fill="url(#accent)"
    opacity=".12"
  />
  <path
    d="M22 13h16c7.18 0 13 5.82 13 13S45.18 39 38 39H30"
    stroke="#32D6F3"
    stroke-width="5"
    stroke-linecap="round"
    stroke-linejoin="round"
  />
  <rect x="15" y="11" width="13" height="40" rx="6.5" fill="#F7FBFF" stroke="#0A2747" stroke-width="4" />
  <circle cx="22" cy="23" r="2.6" fill="#1BC790" />
  <circle cx="20.5" cy="31.5" r="1.8" fill="#1BC790" />
  <circle cx="22.5" cy="40.5" r="3.2" fill="#1BC790" />
  <path
    d="M28 13h10c7.18 0 13 5.82 13 13S45.18 39 38 39H28"
    stroke="#0A2747"
    stroke-width="4"
    stroke-linecap="round"
    stroke-linejoin="round"
  />
</svg>
